<svg height="460pt" viewBox="-55 0 460 460" width="460pt" xmlns="http://www.w3.org/2000/svg"><path d="m339.898438 100.398438v329.5c-.03125 11.035156-8.964844 19.96875-20 20h-289.796876c-11.046874.003906-20.003906-8.953126-20-20v-329.5c-.019531-5.308594 2.082032-10.40625 5.835938-14.160157 3.753906-3.753906 8.851562-5.855469 14.164062-5.839843h58.5v29.703124h-32.902343v294.097657h238.5v-294.097657h-32.398438v-29.703124h58c5.320313-.019532 10.429688 2.074218 14.203125 5.828124 3.769532 3.753907 5.890625 8.851563 5.894532 14.171876zm0 0" fill="#00acea"/><path d="m294.300781 110.101562v294.097657h-238.601562v-294.097657h32.902343v12.296876h173.296876v-12.296876zm0 0" fill="#00efd1"/><path d="m261.898438 110.101562v12.296876h-173.296876v-43c0-17.394532 14.101563-31.5 31.5-31.5h110.296876c17.398437 0 31.5 14.105468 31.5 31.5zm0 0" fill="#d4e1f4"/><path d="m211.5 41.601562v6.296876h-72.5v-6.296876c0-17.398437 14.101562-31.5 31.5-31.5h9.601562c17.363282.039063 31.414063 14.132813 31.398438 31.5zm0 0" fill="#00efd1"/><g fill="#083863"><path d="m153.800781 249h-28.300781c-4.101562.003906-7.785156 2.503906-9.304688 6.3125-1.519531 3.8125-.566406 8.160156 2.40625 10.988281l70.796876 66.898438c2.585937 2.503906 6.3125 3.425781 9.765624 2.417969 3.453126-1.003907 6.101563-3.785157 6.933594-7.285157.835938-3.496093-.269531-7.175781-2.898437-9.632812l-52.5-49.699219h3.199219c13.890624.132812 27.253906-5.308594 37.101562-15.101562 7.351562-7.34375 12.363281-16.707032 14.398438-26.898438h19.101562c5.523438 0 10-4.476562 10-10s-4.476562-10-10-10h-19.101562c-1.597657-9-5.199219-16-10.296876-23h29.5c5.519532 0 10-4.476562 10-10s-4.480468-10-10-10h-98.902343c-5.523438 0-10 4.476562-10 10s4.476562 10 10 10h28.300781c14.398438 0 26.601562 10 30.898438 23h-59.199219c-5.523438 0-10 4.476562-10 10s4.476562 10 10 10h59.199219c-1.78125 4.707031-4.464844 9.019531-7.898438 12.699219-6.214844 6.023437-14.546875 9.363281-23.199219 9.300781zm0 0"/><path d="m319.898438 70h-49c-4.476563-18.746094-21.222657-31.976562-40.5-32h-9.097657c-1.902343-21-19.699219-38-41.300781-38h-9.601562c-21.597657 0-39.398438 17-41.296876 38h-9.101562c-19.273438.023438-36.019531 13.253906-40.5 32h-49.5c-16.398438 0-30 13.898438-30 30.398438v329.5c.0859375 16.589843 13.511719 30.015624 30.101562 30.101562h289.796876c16.589843-.085938 30.015624-13.511719 30.101562-30.101562v-329.5c0-16.5-13.601562-30.398438-30.101562-30.398438zm-149.398438-50h9.601562c10.453126.121094 19.328126 7.695312 21.097657 18h-51.800781c1.769531-10.304688 10.644531-17.878906 21.101562-18zm-71.5 59.398438c-.0625-5.640626 2.132812-11.074219 6.09375-15.09375 3.960938-4.015626 9.363281-6.285157 15.007812-6.304688h110.296876c11.867187-.039062 21.53125 9.53125 21.601562 21.398438v32.601562h-153zm162.898438 52.601562c5.5 0 10.101562-4.101562 10.101562-9.601562v-2.398438h12v274h-218v-274h13v2.398438c-.066406 2.566406.921875 5.050781 2.738281 6.863281 1.8125 1.816406 4.296875 2.804687 6.863281 2.738281zm68.101562 297.898438c-.054688 5.558593-4.542969 10.046874-10.101562 10.101562h-289.796876c-5.558593-.054688-10.046874-4.542969-10.101562-10.101562v-329.5c.03125-5.613282 4.488281-10.203126 10.101562-10.398438h48.898438v10h-23.300781c-2.632813.027344-5.148438 1.109375-6.972657 3.011719-1.824218 1.898437-2.808593 4.453125-2.726562 7.089843v294.097657c-.050781 2.597656.949219 5.105469 2.777344 6.953125s4.324218 2.875 6.921875 2.847656h238.5c2.597656.027344 5.097656-1 6.925781-2.847656 1.824219-1.847656 2.828125-4.355469 2.773438-6.953125v-294.097657c.066406-2.628906-.921876-5.175781-2.746094-7.070312-1.820313-1.898438-4.324219-2.988281-6.953125-3.03125h-22.199219v-10h47.898438c5.613281.195312 10.070312 4.785156 10.101562 10.398438zm0 0"/><path d="m105.699219 374h138.5c5.523437 0 10-4.476562 10-10s-4.476563-10-10-10h-138.5c-5.523438 0-10 4.476562-10 10s4.476562 10 10 10zm0 0"/></g></svg>