<svg height="439pt" viewBox="-55 0 439 439.8" width="439pt" xmlns="http://www.w3.org/2000/svg"><path d="m330.199219 90.300781v329.5c-.03125 11.03125-8.96875 19.96875-20 20h-289.800781c-11.046876.003907-20-8.953125-20-20v-329.5c-.015626-5.3125 2.085937-10.410156 5.839843-14.164062 3.753907-3.753907 8.851563-5.855469 14.160157-5.835938h58.5v29.699219h-32.898438v294.101562h238.5v-294.101562h-32.398438v-29.699219h58c5.320313-.023437 10.429688 2.074219 14.199219 5.828125 3.773438 3.75 5.894531 8.851563 5.898438 14.171875zm0 0" fill="#00acea"/><path d="m284.601562 100v294.101562h-238.601562v-294.101562h32.898438v12.300781h173.300781v-12.300781zm0 0" fill="#00efd1"/><path d="m252.199219 100v12.300781h-173.300781v-43c0-17.398437 14.105468-31.5 31.5-31.5h110.300781c17.398437 0 31.5 14.101563 31.5 31.5zm0 0" fill="#d4e1f4"/><path d="m201.800781 31.5v6.300781h-72.5v-6.300781c0-17.398438 14.101563-31.5 31.5-31.5h9.597657c17.367187.0429688 31.414062 14.136719 31.402343 31.5zm0 0" fill="#00efd1"/><path d="m234.601562 364.101562h-138.601562c-5.523438 0-10-4.480468-10-10 0-5.523437 4.476562-10 10-10h138.5c5.523438-.027343 10.023438 4.425782 10.050781 9.949219.027344 5.523438-4.429687 10.023438-9.949219 10.050781zm0 0" fill="#00acea"/><path d="m144.101562 238.898438h-28.300781c-4.101562.003906-7.789062 2.507812-9.308593 6.316406-1.519532 3.808594-.566407 8.160156 2.40625 10.984375l70.800781 66.902343c2.585937 2.5 6.3125 3.425782 9.765625 2.417969 3.453125-1.007812 6.101562-3.789062 6.933594-7.285156.835937-3.5-.273438-7.175781-2.898438-9.632813l-52.5-49.703124h3.199219c24.996093.101562 46.570312-17.492188 51.5-42h19.101562c5.523438 0 10-4.476563 10-10 0-5.519532-4.476562-10-10-10h-19.101562c-1.597657-9-5.199219-16-10.300781-23h29.5c5.523437 0 10-4.476563 10-10 0-5.519532-4.476563-10-10-10h-98.898438c-5.523438 0-10 4.480468-10 10 0 5.523437 4.476562 10 10 10h28.300781c14.398438 0 26.597657 10 30.898438 23h-59.199219c-5.523438 0-10 4.480468-10 10 0 5.523437 4.476562 10 10 10h59.199219c-4.554688 13.261718-17.078125 22.121093-31.097657 22zm0 0" fill="#fedb41"/></svg>