<?xml version="1.0" encoding="iso-8859-1"?>
<!-- Generator: Adobe Illustrator 19.0.0, SVG Export Plug-In . SVG Version: 6.00 Build 0)  -->
<svg version="1.1" id="Capa_1" xmlns="http://www.w3.org/2000/svg" xmlns:xlink="http://www.w3.org/1999/xlink" x="0px" y="0px"
	 viewBox="0 0 496 496" style="enable-background:new 0 0 496 496;" xml:space="preserve">
<path style="fill:#FDC75B;" d="M470.832,308.1c9.4,11.5,7.7,27.7-3.2,37.1l-74.5,61.8c-27.9,23.2-63.3,35.1-99.5,33.6l-107.5-5
	c-13.9-0.6-22.6,0.1-36.3,2.1l-44.7,8.2h-3V313.3h2l46.5-22.5c25.3-12.2,47.9-18.1,76-17.1l71.2,2.9c0.6-0.1,1.1-0.1,1.7-0.1
	c13.3,0,24.6,10.2,26.1,23.3c1.5,13.6-7.6,26.7-21.4,29.2l-52.9,10c-10.7,2-16.1,14-10.5,23.3l5.7,9.7c2.9,5,8.3,7.9,14,7.7
	l51.2-1.7c19.3-0.7,37.8-7.6,52.7-19.6c20-16.1,48.7-39.3,68-55.1c11.5-9.3,28.7-7.5,38.1,4L470.832,308.1z"/>
<g>
	<path style="fill:#ED664C;" d="M327.432,10c66.7,0,120.8,54.1,120.8,120.8s-54.1,120.9-120.8,120.9s-120.8-54.1-120.8-120.8
		S260.732,10,327.432,10z"/>
	<path style="fill:#ED664C;" d="M102.032,445.9v19.2c0,11.5-9.3,20.9-20.9,20.9h-40.9c-11.5,0-20.9-9.3-20.9-20.9V312.8
		c0-11.5,9.4-20.9,20.9-20.9h40.9c11.5,0,20.9,9.3,20.9,20.9v0.5V445.9z"/>
</g>
<path d="M478.232,301.1c-13-15.9-36.4-18.3-52.2-5.4c-20,16.3-49.1,39.8-68,55.1c-13.2,10.6-29.9,16.8-46.8,17.4l-51.2,1.7
	c-2.1,0-4-1-5.1-2.7l-5.7-9.8c-1.3-2.2-0.7-4.2-0.3-5.2c0.4-0.8,1.5-2.7,4.1-3.2l52.9-10c18.6-3.5,31.6-21.1,29.5-40.2
	c-2-18.3-17.5-32.2-36-32.2c-0.5,0-1.1,0-1.8,0l-70.7-2.9c-28.2-1-52.4,4.4-80.7,18.1l-37,18c-4.9-10.5-15.6-17.8-28-17.8h-41
	c-17.1,0-31.1,13.7-31.1,30.8v152.3c0,17,14,30.9,31.1,30.9h40.9c17,0,31-13.9,31-30.9v-10.3l39.3-7.2c12.7-1.9,20.7-2.6,34.2-2
	l107.5,5c38.7,1.7,76.5-11.1,106.3-35.9l74.5-61.8l0.1-0.1c15-12.9,17.1-34.9,5-50.4C478.832,301.9,478.532,301.5,478.232,301.1z
	 M92.132,465.1c0,6-4.9,10.9-10.9,10.9h-41.2c-6,0-10.9-4.9-10.9-10.9V312.9c0-6,4.9-10.9,10.9-10.9h41.2c6,0,10.9,4.9,10.9,10.9
	C92.132,312.9,92.132,465.1,92.132,465.1z M461.132,337.5l-74.4,61.7c-26,21.6-58.9,32.7-92.7,31.3l-107.5-5
	c-15.1-0.7-24.3,0.2-38.2,2.2c-0.1,0-0.2,0-0.3,0.1l-35.9,6.6v-114l42.8-20.7c25.2-12.2,46.5-17,71.2-16.1l71.2,2.9
	c0.4,0,0.9,0,1.3,0c0.1,0,0.5,0,0.8,0c8.2,0,15.3,6.3,16.2,14.4c1,8.7-4.9,16.7-13.3,18.3l-52.9,10c-8.2,1.6-15.2,7-18.6,14.7
	c-3.4,7.6-2.9,16.4,1.3,23.6l5.7,9.7c4.8,8.1,13.6,12.9,23,12.6l51.2-1.7c21.3-0.7,42.1-8.5,58.7-21.8
	c18.9-15.3,48.1-38.8,68.1-55.1c7-5.7,17.6-4.7,23.6,2.1c0.2,0.4,0.5,0.8,0.8,1.2C468.932,321.5,468.132,331.5,461.132,337.5z"/>
<path d="M327.432,261.7c72.1,0,130.8-58.7,130.8-130.8S399.532,0,327.432,0s-130.8,58.7-130.8,130.8S255.332,261.7,327.432,261.7z
	 M327.432,20c61.1,0,110.8,49.7,110.8,110.8s-49.7,110.8-110.8,110.8s-110.8-49.7-110.8-110.8S266.332,20,327.432,20z"/>
<path d="M310.732,133h-22.4c-4.1,0-7.8,2.6-9.3,6.4c-1.5,3.8-0.6,8.2,2.4,11l55.9,52.9c1.9,1.8,4.4,2.7,6.9,2.7c2.7,0,5.3-1,7.3-3.1
	c3.8-4,3.6-10.3-0.4-14.1l-37.7-35.7c10.6-0.6,20.5-4.9,28.1-12.5c5.8-5.8,9.8-13.6,11.6-20.6h13.4c5.5,0,10-4.5,10-10
	s-4.5-10-10-10h-13.4c-1.2-5-3.1-10-5.8-14h19.2c5.5,0,10-4.5,10-10s-4.5-10-10-10h-55.8h-22.4c-5.5,0-10,4.5-10,10s4.5,10,10,10
	h22.4c9.4,0,17.6,6,21.3,14h-43.7c-5.5,0-10,4.5-10,10s4.5,10,10,10h43.7c-1.1,2-2.7,4.4-4.6,6.3
	C322.932,130.8,317.032,133,310.732,133z"/>
<g>
</g>
<g>
</g>
<g>
</g>
<g>
</g>
<g>
</g>
<g>
</g>
<g>
</g>
<g>
</g>
<g>
</g>
<g>
</g>
<g>
</g>
<g>
</g>
<g>
</g>
<g>
</g>
<g>
</g>
</svg>
