<svg height="640pt" viewBox="-30 0 640 640" width="640pt" xmlns="http://www.w3.org/2000/svg"><path d="m300.585938 101.449219-15.308594-101.449219h-224.601563c-33.820312 0-60.675781 27.554688-60.675781 61.371094v424.71875c0 33.816406 26.855469 60.8125 60.675781 60.8125h213.054688l153.492187-232.402344v-165.734375zm0 0" fill="#00acea"/><path d="m285.277344.140625 141.527344 148.625h-94.210938c-26.164062 0-47.316406-21.152344-47.316406-47.316406zm0 0" fill="#00efd1"/><g fill="#083863"><path d="m279.992188 318.675781h-181.464844c-7.652344 0-13.917969 6.265625-13.917969 13.917969 0 7.65625 6.265625 13.914062 13.917969 13.914062h181.324218c7.652344 0 13.917969-6.257812 13.917969-13.914062 0-7.652344-6.121093-13.917969-13.777343-13.917969zm0 0"/><path d="m98.527344 276.929688h140.96875c7.652344 0 13.917968-6.261719 13.917968-13.917969 0-7.652344-6.265624-13.914063-13.917968-13.914063h-140.96875c-7.652344 0-13.917969 6.261719-13.917969 13.914063 0 7.65625 6.265625 13.917969 13.917969 13.917969zm0 0"/><path d="m234.066406 389.648438h-135.539062c-7.652344 0-13.917969 6.265624-13.917969 13.914062 0 7.65625 6.265625 13.917969 13.917969 13.917969h135.539062c7.65625 0 13.917969-6.261719 13.917969-13.917969 0-7.648438-6.261719-13.914062-13.917969-13.914062zm0 0"/></g><path d="m426.804688 286.8125c86.28125 12.101562 152.65625 86.136719 152.65625 175.753906 0 97.96875-79.457032 177.433594-177.425782 177.433594-67.351562 0-126.078125-37.574219-156-92.960938-13.636718-25.1875-21.429687-53.992187-21.429687-84.609374 0-97.96875 79.460937-177.429688 177.429687-177.429688 8.351563.140625 16.558594.699219 24.769532 1.8125zm0 0" fill="#fedb41"/><path d="m472.171875 375.730469c0-7.648438-6.265625-13.914063-13.914063-13.914063h-113c-7.65625 0-13.921874 6.265625-13.921874 13.914063 0 7.65625 6.265624 13.917969 13.921874 13.917969h32.285157c14.054687 0 26.300781 9.742187 31.585937 20.875h-64.011718c-7.652344 0-13.917969 6.261718-13.917969 13.914062 0 7.65625 6.265625 13.917969 13.917969 13.917969h64.011718c-1.667968 4.171875-4.171875 7.511719-7.234375 10.574219-6.539062 6.542968-15.167969 10.296874-24.492187 10.296874h-32.285156c-5.703126 0-10.855469 3.621094-12.941407 8.90625-2.089843 5.289063-.832031 11.414063 3.339844 15.308594l80.851563 76.402344c2.644531 2.503906 6.121093 3.757812 9.605468 3.757812 3.757813 0 7.371094-1.390624 10.15625-4.316406 5.285156-5.566406 5.011719-14.335937-.558594-19.617187l-55.386718-52.464844c15.730468-.695313 30.339844-7.238281 41.613281-18.371094 8.484375-8.484375 14.058594-19.203125 16.699219-30.335937h19.902344c7.652343 0 13.914062-6.261719 13.914062-13.917969s-6.261719-13.914063-13.914062-13.914063h-19.902344c-1.671875-6.957031-4.730469-13.917968-8.90625-20.875h28.808594c7.652343-.140624 13.773437-6.402343 13.773437-14.058593zm0 0" fill="#083863"/></svg>