<svg height="462pt" viewBox="0 -35 462.80415 462" width="462pt" xmlns="http://www.w3.org/2000/svg"><path d="m426.503906 187.902344h36.300782v113.601562h-102.902344c-22.09375.003906-40.003906-17.90625-40-40v-33.601562c-.003906-22.09375 17.90625-40.007813 40-40zm0 0" fill="#00acea"/><path d="m427.003906 301.402344v90h-377c-27.609375-.011719-49.988281-22.390625-49.99999975-50v-287.800782h.10156275c1.445312 26.511719 23.347656 47.273438 49.898437 47.300782h376.5v87h-66.601562c-22.09375-.007813-40.003906 17.90625-40 40v33.601562c-.003906 22.09375 17.90625 40.003906 40 40h67.101562zm-148.601562-55.5c0-59.09375-47.902344-107-107-107-59.09375 0-107 47.90625-107 107s47.90625 107 107 107c59.097656.003906 107.003906-47.902344 107-107zm0 0" fill="#00efd1"/><path d="m375.804688 100.402344v.5h-325.800782c-26.5625.011718-48.488281-20.773438-49.898437-47.300782-.0859378-.898437-.1171878-1.796874-.10156275-2.699218v-.5c.01171875-27.609375 22.39062475-49.992188 49.99999975-50h300.800782c13.804687.003906 24.996093 11.195312 25 25zm0 0" fill="#00acea"/><g fill="#fedb41"><path d="m278.402344 245.902344c0 59.09375-47.902344 107-107 107-59.09375 0-107-47.90625-107-107s47.90625-107 107-107c59.097656 0 107 47.90625 107 107zm0 0"/><path d="m315.804688 60.703125h-255.800782c-5.523437 0-10-4.476563-10-10s4.476563-10 10-10h255.800782c5.523437 0 10 4.476563 10 10s-4.476563 10-10 10zm0 0"/><path d="m369.902344 217.902344c-5.515625.015625-9.980469 4.484375-10 10v33.601562c0 5.519532 4.480468 10 10 10 5.523437 0 10-4.480468 10-10v-33.601562c.011718-2.65625-1.039063-5.203125-2.917969-7.082032-1.875-1.878906-4.425781-2.925781-7.082031-2.917968zm0 0"/></g><path d="m211.003906 195.203125c5.523438 0 10-4.476563 10-10s-4.476562-10-10-10h-79.199218c-5.523438 0-10 4.476563-10 10s4.476562 10 10 10h22.699218c9.386719-.019531 17.914063 5.457031 21.800782 14h-44.402344c-5.519532 0-10 4.476563-10 10s4.480468 10 10 10h44.402344c-3.921876 8.511719-12.425782 13.976563-21.800782 14h-22.699218c-4.101563.003906-7.789063 2.503906-9.308594 6.3125-1.519532 3.808594-.566406 8.160156 2.40625 10.988281l56.601562 53.5c1.871094 1.746094 4.339844 2.714844 6.898438 2.699219 2.75-.019531 5.378906-1.136719 7.300781-3.101563 1.820313-1.921874 2.800781-4.488281 2.726563-7.132812-.074219-2.644531-1.199219-5.152344-3.125-6.964844l-38.402344-36.300781c19.480468-1.128906 35.910156-14.914063 40.402344-33.902344h13.699218c5.523438 0 10-4.476562 10-10 0-5.523437-4.476562-10-10-10h-13.699218c-1.164063-4.980469-3.195313-9.71875-6-14h19.699218zm0 0" fill="#00acea"/></svg>