<?xml version="1.0" encoding="iso-8859-1"?>
<!-- Generator: Adobe Illustrator 19.0.0, SVG Export Plug-In . SVG Version: 6.00 Build 0)  -->
<svg version="1.1" id="Capa_1" xmlns="http://www.w3.org/2000/svg" xmlns:xlink="http://www.w3.org/1999/xlink" x="0px" y="0px"
	 viewBox="0 0 466.415 466.415" style="enable-background:new 0 0 466.415 466.415;" xml:space="preserve">
<polygon style="fill:#FDC75B;" points="456.4,110.558 379.4,181.758 268.3,181.758 268.3,178.658 343.9,108.358 345.9,110.558 "/>
<polygon style="fill:#ED664C;" points="351.1,101.658 343.9,108.358 268.3,178.658 268.3,181.758 268.3,359.458 268.3,364.658 
	115.3,364.658 115.3,359.458 115.3,181.758 115.3,178.658 186.9,112.058 198.1,101.658 "/>
<polygon style="fill:#FDC75B;" points="185.5,110.558 186.9,112.058 115.3,178.658 115.3,181.758 10,181.758 87,110.558 "/>
<path d="M379.4,192.158c2.5,0,4.9-1.1,6.8-2.8l77-71.4c3-2.8,4-7.4,2.5-11.2s-5.2-6.6-9.3-6.6H361c-0.1,0-0.3-1.8-0.6-2.6
	c-1.5-3.8-5.2-6.4-9.3-6.4h-153c-2.5,0-5,1-6.8,2.7l-6.7,6.3H87c-2.5,0-4.9,1.1-6.8,2.9l-77,71.4c-3,2.8-4,7.4-2.5,11.2
	s5.2,6.6,9.3,6.6h95.2v40H10c-5.5,0-10,4.5-10,10s4.5,10,10,10h95.2v42H10c-5.5,0-10,4.5-10,10s4.5,10,10,10h95.2v41H10
	c-5.5,0-10,4.5-10,10s4.5,10,10,10h369.4c1.9,0,3.8-0.8,5.5-1.9l77-50.4c4.6-3,5.9-9.3,2.9-13.9s-9.2-5.7-13.8-2.7l-74.6,48.8h-98.2
	v-41h101.2c2.1,0,4.1-0.8,5.8-2l77-55.6c4.5-3.2,5.5-9.5,2.3-14s-9.5-5.4-14-2.1l-74.3,53.7h-98v-42h101.2c2.2,0,4.4-0.5,6.2-1.9
	l77-60.7c4.3-3.4,5.1-9.7,1.7-14s-9.7-5.3-14-1.8l-74.4,58.4h-97.7v-40H379.4z M375.5,172.158h-85.1l55.1-51.7
	c0.1,0,0.2-0.3,0.4-0.3h85L375.5,172.158z M90.9,120.158h72.2l-54.6,51.2c-0.2,0.1-0.3-0.2-0.5,0.8H35.5L90.9,120.158z
	 M125.2,355.158v-172.1l68.5-63.9l8.3-8h123.7l-64.3,59.9c-2,1.9-3.2,4.8-3.2,7.6v176.5H125.2z"/>
<path d="M233.9,217.158c5.5,0,10-4.5,10-10s-4.5-10-10-10h-56h-22.5c-5.5,0-10,4.5-10,10s4.5,10,10,10h22.5c9.5,0,17.6,5,21.4,14
	h-43.9c-5.5,0-10,4.5-10,10s4.5,10,10,10h43.9c-1.1,2-2.7,4.4-4.7,6.4c-4.5,4.5-10.5,6.6-16.7,6.6h-22.5c-4.1,0-7.8,2.6-9.3,6.4
	s-0.6,8.2,2.4,11l56.1,53.1c1.9,1.8,4.4,2.7,6.9,2.7c2.7,0,5.3-1,7.3-3.1c3.8-4,3.6-10.3-0.4-14.1l-37.9-35.8
	c10.6-0.6,20.6-4.8,28.3-12.5c5.8-5.8,9.8-13.6,11.6-20.6h13.5c5.5,0,10-4.5,10-10s-4.5-10-10-10h-13.5c-1.2-5-3.1-10-5.8-14h19.3
	V217.158z"/>
<g>
</g>
<g>
</g>
<g>
</g>
<g>
</g>
<g>
</g>
<g>
</g>
<g>
</g>
<g>
</g>
<g>
</g>
<g>
</g>
<g>
</g>
<g>
</g>
<g>
</g>
<g>
</g>
<g>
</g>
</svg>
