<svg height="482pt" viewBox="-15 0 482 482" width="482pt" xmlns="http://www.w3.org/2000/svg"><path d="m442.230469 332.660156v53.089844c0 10.269531-8.320313 18.59375-18.589844 18.601562h-395.28125c-10.269531-.007812-18.589844-8.332031-18.589844-18.601562v-53.089844zm0 0" fill="#fedb41"/><path d="m442.230469 117.820312v214.839844h-91.832031v-233.429687h73.242187c10.265625-.003907 18.585937 8.316406 18.589844 18.582031zm0 0" fill="#d4e1f4"/><path d="m350.398438 331.878906v.78125h-248.796876v-294.539062c-.003906-15.285156 12.386719-27.679688 27.671876-27.679688h147.226562v62.289063c.003906 7.640625 6.199219 13.835937 13.839844 13.839843h54.660156l5.398438 6zm0 0" fill="#00acea"/><path d="m276.5 10.441406 68.5 76.128906h-54.660156c-7.640625-.003906-13.835938-6.199218-13.839844-13.839843zm0 0" fill="#fedb41"/><path d="m286.871094 404.351562 18.589844 67.207032h-158.921876l18.589844-67.207032zm0 0" fill="#00efd1"/><path d="m101.601562 331.878906v.78125h-91.832031v-214.839844c0-10.265624 8.316407-18.589843 18.582031-18.589843h73.25zm0 0" fill="#d4e1f4"/><g fill="#083863"><path d="m423.640625 89h-63.640625v-.269531l-10-11.113281v-.617188h-.542969l-68.5-77h-151.675781c-20.78125 0-37.28125 17.34375-37.28125 38.121094v50.878906h-63.640625c-15.757813 0-28.359375 13.054688-28.359375 28.820312v267.929688c-.0625 15.539062 12.480469 28.1875 28.019531 28.25h123.96875l-13.058593 48h-27.28125c-5.519532 0-10 4.476562-10 10s4.480468 10 10 10h228.703124c5.523438 0 10-4.476562 10-10s-4.476562-10-10-10h-27.28125l-13.058593-48h123.628906c15.539063.125 28.234375-12.371094 28.359375-27.910156 0-.113282 0-.226563 0-.339844v-267.929688c0-15.765624-12.601562-28.820312-28.359375-28.820312zm0 20c4.742187.132812 8.480469 4.078125 8.359375 8.820312v205.179688h-72v-214zm-137.640625-72.5 36.550781 40.5h-32.210937c-2.300782-.164062-4.140625-1.972656-4.339844-4.269531zm-156.71875-16.5h136.71875v52.730469c.214844 13.339843 11 24.09375 24.339844 24.269531h49.660156v226h-228v-284.878906c0-9.75 7.53125-18.121094 17.28125-18.121094zm-100.921875 89h63.640625v214h-72v-205.179688c-.121094-4.742187 3.621094-8.6875 8.359375-8.820312zm263.960937 353h-132.640624l13.058593-48h106.523438zm131.320313-68h-395.28125c-4.480469.136719-8.226563-3.386719-8.359375-7.867188-.003906-.128906-.003906-.253906 0-.382812v-42.75h412v42.75c.074219 4.480469-3.496094 8.175781-7.980469 8.25-.125.003906-.253906.003906-.378906 0zm0 0"/><path d="m144.21875 301h159.300781c5.523438 0 10-4.476562 10-10s-4.476562-10-10-10h-159.300781c-5.519531 0-10 4.476562-10 10s4.480469 10 10 10zm0 0"/><path d="m144.21875 267h95.371094c5.523437 0 10-4.476562 10-10s-4.476563-10-10-10h-95.371094c-5.519531 0-10 4.476562-10 10s4.480469 10 10 10zm0 0"/><path d="m209.140625 160h-22.558594c-4.113281.039062-7.789062 2.570312-9.296875 6.394531-1.507812 3.824219-.550781 8.179688 2.425782 11.015625l56.390624 53.300782c3.945313 3.847656 10.261719 3.773437 14.117188-.164063s3.792969-10.253906-.136719-14.117187c-.078125-.078126-.160156-.152344-.242187-.230469l-38.191406-36.082031c19.457031-1.253907 35.78125-15.125 40.167968-34.117188h13.601563c5.523437 0 10-4.476562 10-10s-4.476563-10-10-10h-13.613281c-1.121094-4.671875-3.125-9.082031-5.910157-13h19.527344c5.519531 0 10-4.476562 10-10s-4.480469-10-10-10h-78.839844c-5.523437 0-10 4.476562-10 10s4.476563 10 10 10h22.558594c9.570313 0 17.835937 5 21.621094 13h-44.179688c-5.523437 0-10 4.476562-10 10s4.476563 10 10 10h44.199219c-1.058594 2.640625-2.695312 5.011719-4.789062 6.933594-4.453126 4.507812-10.519532 7.050781-16.851563 7.066406zm0 0"/></g></svg>