<?xml version="1.0" encoding="iso-8859-1"?>
<!-- Generator: Adobe Illustrator 19.0.0, SVG Export Plug-In . SVG Version: 6.00 Build 0)  -->
<svg version="1.1" id="Layer_1" xmlns="http://www.w3.org/2000/svg" xmlns:xlink="http://www.w3.org/1999/xlink" x="0px" y="0px"
	 viewBox="0 0 491.52 491.52" style="enable-background:new 0 0 491.52 491.52;" xml:space="preserve">
<circle style="fill:#EA8953;" cx="245.76" cy="245.76" r="245.76"/>
<path style="opacity:0.1;enable-background:new    ;" d="M484.231,305.236L363.366,184.371c-1.024-1.844-3.328-2.56-5.171-1.536
	c-1.741,0.973-3.584,1.741-5.581,2.611c-3.993,1.69-8.09,3.481-11.571,6.656c-1.433-0.973-2.918-1.895-4.403-2.714l-28.826-28.774
	l-0.512-0.563c-16.896-18.279-43.213-30.054-72.909-30.054c-10.342,0-20.327,1.484-29.645,4.147l-2.713-2.714
	c-7.68-18.585-25.242-25.958-26.419-26.419l-0.051-0.051v15.052c-5.325-3.789-9.574-5.478-9.574-5.478v41.011
	c-9.728,9.011-16.998,19.968-20.889,32.102H134.4c-3.686,0-6.707,3.021-6.707,6.708v26.777c0,2.048,0.922,3.84,2.355,5.069
	l0.102,0.102l51.558,51.559v13.568c0,2.867,2.304,5.171,5.171,5.171h-35.584c-25.549,0-46.336,20.173-46.336,45.005
	c0,12.186,5.069,23.348,13.21,31.386l118.293,118.293c3.09,0.115,6.179,0.235,9.298,0.235
	C360.975,491.52,457.633,412.222,484.231,305.236z"/>
<path style="fill:#64798A;" d="M346.551,224.607c-1.394,0-2.81-0.284-4.156-0.884c-3.448-1.537-6.091-4.799-7.444-9.186
	c-1.661-5.414-1.016-11.381,1.527-16.388c-2.969-1.939-6.191-3.613-9.346-5.251l-9.924-5.155c-2.565-1.329-3.27-1.153-3.34-1.123
	c-1.75,1.158-4.1,0.664-5.253-1.09c-1.149-1.752-0.66-4.108,1.094-5.259c4.23-2.779,9.142-0.226,10.999,0.734l9.924,5.155
	c3.492,1.815,7.058,3.666,10.436,5.917c3.462-3.17,7.577-4.936,11.555-6.645c1.972-0.845,3.837-1.646,5.572-2.591
	c1.85-1.006,4.148-0.323,5.149,1.516c1.005,1.842,0.323,4.146-1.516,5.149c-2.046,1.116-4.163,2.024-6.21,2.903
	c-3.121,1.342-6.091,2.617-8.475,4.469c5.253,5.018,8.356,11.084,8.764,17.177c0.089,1.348,0.108,3.374-0.808,5.381
	C353.631,222.681,350.184,224.607,346.551,224.607z M342.606,203.067c-1.116,2.951-1.309,6.265-0.397,9.24
	c0.686,2.224,1.88,3.859,3.277,4.482c1.027,0.458,2.436,0.102,2.699-0.489c0.108-0.232,0.215-0.715,0.145-1.735
	C347.996,209.58,345.001,205.539,342.606,203.067z"/>
<path style="fill:#DC8744;" d="M175.549,156.279V104.96c0,0,33.95,13.167,29.805,51.319"/>
<g>
	<path style="fill:#F6C358;" d="M204.713,296.621H186.88c-2.865,0-5.188-2.323-5.188-5.188v-34.678h28.21v34.678
		C209.902,294.298,207.579,296.621,204.713,296.621z"/>
	<path style="fill:#F6C358;" d="M280.95,296.621h-17.833c-2.865,0-5.188-2.323-5.188-5.188v-34.678h28.21v34.678
		C286.138,294.298,283.815,296.621,280.95,296.621z"/>
</g>
<path style="fill:#FCD462;" d="M234.41,130.01c-42.783,0-78.761,24.456-89.289,57.649h-10.714c-3.698,0-6.695,2.997-6.695,6.694
	v26.778c0,3.697,2.997,6.694,6.695,6.694h10.714c10.528,33.193,46.506,57.649,89.289,57.649c51.043,0,92.422-34.802,92.422-77.733
	S285.453,130.01,234.41,130.01z"/>
<path style="fill:#F6C358;" d="M165.992,165.835v-51.319c0,0,33.95,13.167,29.805,51.319"/>
<ellipse style="fill:#EBF0F3;" cx="170.803" cy="189.798" rx="7.67" ry="13.788"/>
<ellipse style="fill:#64798A;" cx="170.803" cy="189.798" rx="3.261" ry="5.857"/>
<ellipse style="fill:#FFFFFF;" cx="172.861" cy="186.112" rx="1.198" ry="2.156"/>
<rect x="209.193" y="154.675" style="fill:#F6C358;" width="73.211" height="5.381"/>
<path style="fill:#EBF0F3;" d="M151.963,301.417c-23.23,0-42.063,17.986-42.063,40.174c0,22.187,18.833,40.173,42.063,40.173
	l234.148,0c-11.498,0-11.498-80.347,0-80.347L151.963,301.417z"/>
<path style="fill:#64798A;" d="M381.62,386.56H151.281c-25.541,0-46.321-20.174-46.321-44.971c0-24.794,20.779-44.968,46.321-44.968
	H381.62c2.731,0,4.94,2.148,4.94,4.796s-2.21,4.796-4.94,4.796H151.281c-20.094,0-36.44,15.869-36.44,35.376
	s16.346,35.378,36.44,35.378H381.62c2.731,0,4.94,2.148,4.94,4.796C386.56,384.412,384.35,386.56,381.62,386.56z"/>
<g>
	<path style="fill:#D5D6DB;" d="M132.971,363.172c-1.087-1.247-2.025-2.542-2.914-3.933h248.203
		c0.148,1.343,0.296,2.686,0.444,3.933H132.971z"/>
	<path style="fill:#D5D6DB;" d="M126.994,353.34c-0.495-1.247-0.938-2.542-1.285-3.885h251.908c0.049,1.295,0.148,2.638,0.198,3.885
		H126.994z"/>
	<path style="fill:#D5D6DB;" d="M130.057,323.938c0.889-1.391,1.827-2.686,2.914-3.933h245.733c-0.148,1.247-0.296,2.59-0.444,3.933
		H130.057z"/>
	<path style="fill:#D5D6DB;" d="M379.595,369.072c0.296,1.391,0.592,2.686,0.889,3.933H147.2c-2.668-1.055-5.188-2.35-7.509-3.933
		H379.595z"/>
	<path style="fill:#D5D6DB;" d="M139.691,314.105c2.322-1.583,4.841-2.878,7.509-3.933h233.283
		c-0.297,1.247-0.593,2.542-0.889,3.933H139.691z"/>
	<path style="fill:#D5D6DB;" d="M124.82,343.555c-0.049-0.672-0.099-1.295-0.099-1.967c0-0.671,0.049-1.295,0.099-1.966h252.698
		c-0.049,1.295-0.049,2.638,0,3.933H124.82z"/>
	<path style="fill:#D5D6DB;" d="M125.709,333.723c0.346-1.343,0.79-2.638,1.285-3.885h250.822c-0.049,1.295-0.148,2.59-0.198,3.885
		H125.709z"/>
</g>
<g>
</g>
<g>
</g>
<g>
</g>
<g>
</g>
<g>
</g>
<g>
</g>
<g>
</g>
<g>
</g>
<g>
</g>
<g>
</g>
<g>
</g>
<g>
</g>
<g>
</g>
<g>
</g>
<g>
</g>
</svg>
