<svg height="512pt" viewBox="0 0 512 512" width="512pt" xmlns="http://www.w3.org/2000/svg"><path d="m7.5 129.5h497v360h-497zm0 0" fill="#ff2c5c"/><path d="m474.5 129.5h30v360h-30zm0 0" fill="#e62753"/><path d="m271 457.5v32c0 8.28125-6.71875 15-15 15s-15-6.71875-15-15v-32zm0 0" fill="#d6244d"/><path d="m36 103.5h220v324h-220zm0 0" fill="#d8d5ed"/><path d="m256 103.5h220v324h-220zm0 0" fill="#d8d5ed"/><path d="m36 427.5h220v30h-220zm0 0" fill="#bebade"/><path d="m256 427.5h220v30h-220zm0 0" fill="#bebade"/><path d="m400.023438 265.191406h-50.203126c-2.707031 0-4.898437-2.195312-4.898437-4.898437v-238.292969c0-8.007812 6.492187-14.5 14.5-14.5h31c8.007813 0 14.5 6.492188 14.5 14.5v238.292969c0 2.703125-2.195313 4.898437-4.898437 4.898437zm0 0" fill="#ffd659"/><path d="m390.421875 7.5h-30c8.007813 0 14.5 6.492188 14.5 14.5v238.292969c0 2.703125-2.191406 4.898437-4.898437 4.898437h30c2.703124 0 4.898437-2.195312 4.898437-4.898437v-238.292969c0-8.007812-6.492187-14.5-14.5-14.5zm0 0" fill="#ffbd54"/><path d="m400.023438 265.191406h-50.203126c-2.707031 0-4.898437-2.195312-4.898437-4.898437v-25.101563h60v25.101563c0 2.703125-2.195313 4.898437-4.898437 4.898437zm0 0" fill="#b5fcff"/><path d="m374.921875 235.191406v25.101563c0 2.703125-2.191406 4.898437-4.898437 4.898437h30c2.703124 0 4.898437-2.195312 4.898437-4.898437v-25.101563zm0 0" fill="#8cf2ff"/><path d="m370.742188 323.21875c-31.308594-39-16.152344-58.027344-16.152344-58.027344h40.660156s15.167969 19.027344-16.152344 58.027344c-2.113281 2.628906-6.242187 2.628906-8.355468 0zm0 0" fill="#ffd659"/><path d="m344.921875 54.191406h60v30h-60zm0 0" fill="#b5fcff"/><path d="m374.921875 54.191406h30v30h-30zm0 0" fill="#8cf2ff"/><path d="m146 364c-8.285156 0-15-6.714844-15-15v-139h30v139c0 8.285156-6.714844 15-15 15zm0 0" fill="#484b63"/><path d="m146 228c-44.113281 0-80-35.886719-80-80s35.886719-80 80-80 80 35.886719 80 80-35.886719 80-80 80zm0 0" fill="#b5fcff"/><path d="m146 68c-5.128906 0-10.136719.503906-15 1.429688 36.964844 7.042968 65 39.585937 65 78.570312s-28.035156 71.527344-65 78.570312c4.863281.925782 9.871094 1.429688 15 1.429688 44.113281 0 80-35.886719 80-80s-35.886719-80-80-80zm0 0" fill="#71f6fc"/><path d="m504.5 122h-21v-18.5c0-4.140625-3.355469-7.5-7.5-7.5h-63.578125v-74c0-12.132812-9.871094-22-22-22h-31c-12.132813 0-22 9.867188-22 22v74h-121.09375c-15.957031-21.523438-41.539063-35.5-70.328125-35.5s-54.371094 13.976562-70.328125 35.5h-39.671875c-4.144531 0-7.5 3.359375-7.5 7.5v18.5h-21c-4.144531 0-7.5 3.359375-7.5 7.5v360c0 4.140625 3.355469 7.5 7.5 7.5h227.289062c3.097657 8.730469 11.433594 15 21.210938 15s18.113281-6.269531 21.210938-15h42.621093c4.144531 0 7.5-3.359375 7.5-7.5s-3.355469-7.5-7.5-7.5h-41.332031v-17h197.5c4.144531 0 7.5-3.359375 7.5-7.5v-265.832031c0-4.144531-3.355469-7.5-7.5-7.5s-7.5 3.355469-7.5 7.5v228.332031h-205v-309h73.921875v124.175781.015625 25.101563c0 4.839843 2.792969 9.027343 6.84375 11.066406-1.464844 7.277344-1.296875 18.15625 5.292969 32.472656h-48.558594c-4.144531 0-7.5 3.355469-7.5 7.5 0 4.140625 3.355469 7.5 7.5 7.5h57.15625c1.988281 2.921875 4.222656 5.945313 6.738281 9.082031 2.4375 3.035157 6.089844 4.777344 10.023438 4.777344h.003906c3.933594 0 7.585937-1.742187 10.023437-4.777344 2.515626-3.132812 4.75-6.160156 6.742188-9.082031h39.3125c4.144531 0 7.5-3.359375 7.5-7.5s-3.355469-7.5-7.5-7.5h-30.714844c6.589844-14.316406 6.757813-25.191406 5.292969-32.46875 4.050781-2.042969 6.84375-6.230469 6.84375-11.070312v-149.289063h56.078125v49c0 4.140625 3.359375 7.5 7.5 7.5 4.144531 0 7.5-3.359375 7.5-7.5v-23h13.5v345h-145c-4.144531 0-7.5 3.355469-7.5 7.5 0 4.140625 3.355469 7.5 7.5 7.5h152.5c4.144531 0 7.5-3.359375 7.5-7.5v-360c0-4.144531-3.355469-7.503906-7.5-7.503906zm-461 328v-15h205v15zm102.5-374.5c39.976562 0 72.5 32.523438 72.5 72.5s-32.523438 72.5-72.5 72.5-72.5-32.523438-72.5-72.5 32.523438-72.5 72.5-72.5zm-7.5 159.675781c2.472656.210938 4.972656.324219 7.5.324219s5.027344-.113281 7.5-.324219v113.824219c0 4.136719-3.363281 7.5-7.5 7.5s-7.5-3.363281-7.5-7.5zm-123.5-98.175781h13.5v214.5c0 4.140625 3.355469 7.5 7.5 7.5s7.5-3.359375 7.5-7.5v-240.5h23.21875c-5.269531 11.246094-8.21875 23.78125-8.21875 37 0 40.472656 27.621094 74.605469 65 84.5625v116.4375c0 12.40625 10.09375 22.5 22.5 22.5s22.5-10.09375 22.5-22.5v-116.4375c37.378906-9.957031 65-44.089844 65-84.5625 0-13.21875-2.949219-25.753906-8.21875-37h23.21875v309h-205v-36c0-4.140625-3.355469-7.5-7.5-7.5s-7.5 3.359375-7.5 7.5v73.5c0 4.140625 3.355469 7.5 7.5 7.5h197.5v17h-218.5zm248.5 352.5c0 4.136719-3.363281 7.5-7.5 7.5s-7.5-3.363281-7.5-7.5v-24.5h15zm205-54.5v15h-205v-15zm-113.910156-177.308594h-2.167969v-15h45v15zm-2.167969-196.003906h45v15h-45zm0 166.003906v-136.003906h45v11.804688.007812.007812 124.183594zm7-212.691406h31c3.855469 0 7 3.140625 7 7v24.691406h-45v-24.691406c0-3.859375 3.140625-7 7-7zm-.089844 257.691406h8.089844v12.5c0 4.140625 3.355469 7.5 7.5 7.5s7.5-3.359375 7.5-7.5v-12.5h8.089844c1.6875 5.808594 2.625 20.140625-15.589844 43.710938-18.210937-23.570313-17.277344-37.902344-15.589844-43.710938zm0 0"/><path d="m301 283.5h19.34375c4.140625 0 7.5-3.359375 7.5-7.5s-3.359375-7.5-7.5-7.5h-19.34375c-4.144531 0-7.5 3.359375-7.5 7.5s3.355469 7.5 7.5 7.5zm0 0"/><path d="m438.5 346.667969c0-4.144531-3.355469-7.5-7.5-7.5h-130c-4.144531 0-7.5 3.355469-7.5 7.5 0 4.140625 3.355469 7.5 7.5 7.5h130c4.144531 0 7.5-3.359375 7.5-7.5zm0 0"/><path d="m301 374.5c-4.144531 0-7.5 3.359375-7.5 7.5s3.355469 7.5 7.5 7.5h46.105469c4.144531 0 7.5-3.359375 7.5-7.5s-3.355469-7.5-7.5-7.5zm0 0"/></svg>