<svg height="512pt" viewBox="-49 0 512 512" width="512pt" xmlns="http://www.w3.org/2000/svg"><path d="m70.621094 0c-38.839844 0-70.621094 31.78125-70.621094 70.621094v355.804687c.105469-.175781.160156-.363281.265625-.53125 1.394531-2.242187 3.390625-3.195312 5.429687-3.351562 10.8125-25.195313 35.890626-42.957031 64.925782-42.957031h344.277344v-379.585938zm0 0" fill="#61b872"/><path d="m70.621094 353.101562c-38.839844 0-70.621094 31.78125-70.621094 70.621094 0 38.84375 31.78125 70.621094 70.621094 70.621094h61.792968v-70.621094h52.964844v70.621094h229.519532v-141.242188zm0 0" fill="#f2ecbf"/><path d="m70.621094 388.414062c-19.472656 0-35.3125 15.835938-35.3125 35.308594 0 19.476563 15.839844 35.3125 35.3125 35.3125h61.792968v-35.3125h52.964844v35.3125h229.519532v-70.621094zm0 0" fill="#ccc496"/><path d="m132.414062 432.550781h-61.792968c-4.875 0-8.828125-3.945312-8.828125-8.828125 0-4.878906 3.953125-8.824218 8.828125-8.824218h61.792968c4.871094 0 8.828126 3.945312 8.828126 8.824218 0 4.882813-3.957032 8.828125-8.828126 8.828125zm0 0" fill="#ada477"/><path d="m238.34375 432.550781h-52.964844c-4.871094 0-8.828125-3.945312-8.828125-8.828125 0-4.878906 3.957031-8.824218 8.828125-8.824218h52.964844c4.875 0 8.828125 3.945312 8.828125 8.824218 0 4.882813-3.953125 8.828125-8.828125 8.828125zm0 0" fill="#ada477"/><path d="m61.792969.617188c-34.710938 4.386718-61.792969 34.15625-61.792969 70.003906v353.101562c0-35.847656 27.082031-65.675781 61.792969-70.0625zm0 0" fill="#4b9958"/><path d="m0 131.179688v54.199218c0-35.847656 27.082031-65.613281 61.792969-70.003906v-54.199219c-34.710938 4.386719-61.792969 34.152344-61.792969 70.003907zm0 0" fill="#3d6f44"/><path d="m0 273.039062v54.199219c0-35.847656 27.082031-65.613281 61.792969-70.003906v-54.199219c-34.710938 4.386719-61.792969 34.152344-61.792969 70.003906zm0 0" fill="#3d6f44"/><path d="m185.378906 512-26.480468-26.484375-26.484376 26.484375v-97.101562h52.964844zm0 0" fill="#dd352e"/><path d="m414.898438 414.898438h-44.140626c-4.871093 0-8.828124 3.945312-8.828124 8.824218 0 4.882813 3.957031 8.828125 8.828124 8.828125h44.140626zm0 0" fill="#ada477"/><path d="m370.757812 176.550781c0 73.132813-59.28125 132.414063-132.414062 132.414063-73.128906 0-132.414062-59.28125-132.414062-132.414063 0-73.128906 59.285156-132.414062 132.414062-132.414062 73.132812 0 132.414062 59.285156 132.414062 132.414062zm0 0" fill="#fff"/><g fill="#afb6bb"><path d="m264.828125 158.898438h-52.964844c-4.875 0-8.828125-3.949219-8.828125-8.828126v-52.96875c0-4.878906 3.953125-8.824218 8.828125-8.824218h52.964844c4.871094 0 8.828125 3.945312 8.828125 8.824218v52.96875c0 4.878907-3.957031 8.828126-8.828125 8.828126zm-44.136719-17.65625h35.308594v-35.3125h-35.308594zm0 0"/><path d="m176.550781 141.242188c-4.871093 0-8.828125-3.945313-8.828125-8.828126v-17.65625c0-4.878906 3.957032-8.828124 8.828125-8.828124 4.875 0 8.828125 3.949218 8.828125 8.828124v17.65625c0 4.882813-3.953125 8.828126-8.828125 8.828126zm0 0"/><path d="m300.136719 141.242188c-4.871094 0-8.828125-3.945313-8.828125-8.828126v-17.65625c0-4.878906 3.957031-8.828124 8.828125-8.828124 4.875 0 8.828125 3.949218 8.828125 8.828124v17.65625c0 4.882813-3.953125 8.828126-8.828125 8.828126zm0 0"/></g><path d="m308.921875 238.34375h-141.152344c-4.902343 0-8.871093-3.972656-8.871093-8.871094v-88.195312c0-4.890625 3.96875-8.863282 8.871093-8.863282h141.160157c4.890624 0 8.863281 3.972657 8.863281 8.871094v88.195313c0 4.890625-3.972657 8.863281-8.871094 8.863281zm0 0" fill="#be6e41"/></svg>