<svg height="464pt" viewBox="-7 0 464 464.9" width="464pt" xmlns="http://www.w3.org/2000/svg"><path d="m172.050781 111.699219h-22.699219c-4.101562.003906-7.789062 2.503906-9.308593 6.316406-1.519531 3.808594-.566407 8.160156 2.40625 10.984375l56.601562 53.5c1.871094 1.75 4.339844 2.714844 6.898438 2.699219 2.75-.019531 5.378906-1.132813 7.300781-3.097657 1.820312-1.921874 2.800781-4.488281 2.726562-7.132812-.078124-2.648438-1.199218-5.152344-3.125-6.96875l-38.402343-36.300781c19.480469-1.125 35.910156-14.910157 40.402343-33.898438h13.699219c5.523438 0 10-4.476562 10-10 0-5.523437-4.476562-10-10-10h-13.699219c-1.164062-4.984375-3.195312-9.722656-6-14h19.699219c5.523438 0 10-4.476562 10-10 0-5.523437-4.476562-10-10-10h-79.199219c-5.523437 0-10 4.476563-10 10 0 5.523438 4.476563 10 10 10h22.699219c9.382813-.019531 17.910157 5.457031 21.800781 14h-44.402343c-5.523438 0-10 4.476563-10 10 0 5.523438 4.476562 10 10 10h44.402343c-3.976562 8.453125-12.460937 13.859375-21.800781 13.898438zm0 0"/><path d="m394.449219 138.199219v-96.5c-.019531-23.019531-18.679688-41.6757815-41.699219-41.699219h-260.5c-22.101562 0-40.199219 17.800781-40.199219 39.699219l-1.5 252.101562h-40.101562c-5.515625.015625-9.984375 4.484375-10 10v43.300781c.0625 28.121094 22.207031 51.234376 50.300781 52.5v.097657h224.800781v-.097657c1 .097657 2 .097657 3 .097657 29.035157-.035157 52.5625-23.5625 52.597657-52.597657v-197h53.300781c2.648437.046876 5.207031-.976562 7.089843-2.839843 1.882813-1.867188 2.933594-4.410157 2.910157-7.0625zm-374 207v-33.300781h205.5v33.300781c.011719 11.84375 4.03125 23.332031 11.402343 32.601562h-184.300781c-18.003906-.003906-32.597656-14.597656-32.601562-32.601562zm290.699219-303.5v303.5c0 18.003906-14.59375 32.601562-32.597657 32.601562-18.003906 0-32.601562-14.597656-32.601562-32.601562v-43.300781c-.015625-5.515626-4.484375-9.984376-10-10h-165.300781l1.5-252.097657c.113281-11.046875 9.15625-19.910156 20.203124-19.800781h225c-4.074218 6.503906-6.222656 14.027344-6.203124 21.699219zm63.300781 86.5h-43.300781v-86.5c0-11.984375 9.71875-21.699219 21.703124-21.699219 11.984376 0 21.699219 9.714844 21.699219 21.699219v86.5zm0 0"/><path d="m268.351562 211.101562h-159.5c-5.523437 0-10 4.476563-10 10 0 5.519532 4.476563 10 10 10h159.597657c5.523437-.027343 9.976562-4.527343 9.949219-10.050781-.027344-5.523437-4.527344-9.976562-10.046876-9.949219zm0 0"/><path d="m205.351562 252h-96.5c-5.523437 0-10 4.476562-10 10s4.476563 10 10 10h96.5c5.519532 0 10-4.476562 10-10s-4.480468-10-10-10zm0 0"/><path d="m410.449219 180.398438c-21.527344.027343-38.972657 17.472656-39 39v173.300781c-.015625.371093.019531.742187.101562 1.101562v.199219c0 .300781.097657.5.097657.800781-.011719.109375.023437.21875.101562.300781.054688.234376.121094.46875.199219.699219 0 .097657.101562.199219.101562.300781.097657.199219.199219.5.300781.699219 0 .054688.042969.097657.097657.097657l29.5 62.300781c1.660156 3.46875 5.15625 5.679687 9 5.699219h.101562c3.875-.003907 7.390625-2.269532 9-5.796876l28.5-62.300781v-.101562c.097657-.199219.199219-.5.300781-.699219.007813-.074219.042969-.144531.097657-.199219.113281-.253906.183593-.523437.199219-.800781 0-.101562 0-.101562.101562-.199219.082031-.292969.117188-.597656.101562-.902343v-.199219c0-.300781.097657-.699219.097657-1.097657v-173.203124c-.027344-21.527344-17.472657-38.972657-39-39zm-19 202.300781v-132.300781h38v132.300781zm19-182.300781c10.496093-.003907 19.003906 8.507812 19 19v11h-38v-11c-.003907-10.492188 8.503906-19.003907 19-19zm.402343 230.800781-13.5-28.597657h26.597657zm0 0"/></svg>