<?xml version="1.0" encoding="iso-8859-1"?>
<!-- Generator: Adobe Illustrator 19.0.0, SVG Export Plug-In . SVG Version: 6.00 Build 0)  -->
<svg version="1.1" id="Capa_1" xmlns="http://www.w3.org/2000/svg" xmlns:xlink="http://www.w3.org/1999/xlink" x="0px" y="0px"
	 viewBox="0 0 491.52 491.52" style="enable-background:new 0 0 491.52 491.52;" xml:space="preserve">
<circle style="fill:#EFC84A;" cx="245.76" cy="245.76" r="245.76"/>
<path style="opacity:0.1;enable-background:new    ;" d="M481.436,315.445L291.737,125.747
	c-11.212-12.749-27.647-20.787-45.977-20.787c-33.843,0-61.235,27.443-61.235,61.235c0,12.646,3.84,24.423,10.445,34.202
	c-7.731-4.557-16.691-7.271-26.318-7.271c-28.569,0-51.762,23.194-51.762,51.763c0,12.391,4.351,23.757,11.622,32.666l0.205,0.205
	c2.099,2.56,4.454,4.915,7.014,7.014l11.981,11.981c-23.911,1.792-42.752,21.197-42.752,44.851c0,13.159,5.888,25.037,15.155,33.229
	l116.452,116.452c3.056,0.113,6.11,0.233,9.193,0.233C357.276,491.52,451.386,417.221,481.436,315.445z"/>
<circle style="fill:#2D93BA;" cx="322.87" cy="244.88" r="51.712"/>
<circle style="fill:#27A2DB;" cx="322.87" cy="244.88" r="43.1"/>
<path style="fill:#1C75A1;" d="M292.458,242.24v-6.897h8.339c1.762-5.719,4.887-10.316,9.383-13.791
	c4.489-3.475,9.592-5.21,15.315-5.21c8.496,0,15.23,3.073,20.202,9.22l-5.69,7.217c-2.356-2.512-4.587-4.277-6.695-5.292
	c-2.114-1.015-4.718-1.524-7.817-1.524c-3.106,0-5.899,0.816-8.378,2.444c-2.486,1.631-4.346,3.945-5.573,6.936h19.08v6.897h-20.77
	c-0.052,0.639-0.078,1.615-0.078,2.927c0,1.308,0.078,2.551,0.241,3.726h20.607v6.897h-18.44c2.884,5.559,7.243,8.339,13.07,8.339
	c2.884,0,5.357-0.548,7.413-1.644c2.062-1.096,4.241-2.819,6.538-5.171l5.69,6.894c-4.972,6.15-11.517,9.223-19.641,9.223
	c-5.56,0-10.493-1.592-14.793-4.773c-4.307-3.178-7.393-7.468-9.266-12.868h-8.737v-6.897h7.217
	c-0.163-1.282-0.241-2.564-0.241-3.847c0-1.282,0.026-2.219,0.078-2.806L292.458,242.24L292.458,242.24z"/>
<circle style="fill:#3EA69B;" cx="168.64" cy="244.88" r="51.712"/>
<circle style="fill:#44C4A1;" cx="168.64" cy="244.88" r="43.1"/>
<path style="fill:#31978C;" d="M165.142,234.319v9.546h12.175v7.143h-12.175v13.26h21.722v7.653h-36.288v-7.653h5.973v-13.26h-6.271
	v-7.143h6.271v-9.108c0-5.875,1.48-10.163,4.441-12.86c2.969-2.697,6.849-4.046,11.665-4.046c6.364,0,11.146,2.723,14.354,8.164
	l-6.049,4.807c-1.991-3.301-4.569-4.956-7.726-4.956c-2.331,0-4.263,0.668-5.794,2.004
	C165.908,229.209,165.142,231.358,165.142,234.319z"/>
<circle style="fill:#3A556A;" cx="245.76" cy="166.2" r="61.24"/>
<circle style="fill:#64798A;" cx="245.76" cy="166.2" r="51.03"/>
<path style="fill:#3A556A;" d="M243.655,205.909v-6.993c-8.755-0.893-16.613-4.374-23.568-10.439l6.993-8.334
	c5.364,4.662,10.883,7.437,16.574,8.334v-18.586c-7.219-1.723-12.505-3.992-15.857-6.802c-3.352-2.811-5.028-6.978-5.028-12.501
	c0-5.524,1.926-10.041,5.792-13.557c3.867-3.512,8.895-5.426,15.093-5.746v-4.791h6.128v4.884
	c7.024,0.515,13.667,2.908,19.927,7.188l-6.229,8.813c-4.218-3.001-8.778-4.853-13.698-5.559v18.009h0.288
	c7.344,1.727,12.739,4.058,16.185,6.993c3.454,2.939,5.177,7.204,5.177,12.789c0,5.59-1.98,10.143-5.941,13.651
	c-3.96,3.516-9.192,5.43-15.709,5.75v6.896h-6.127V205.909z M236.896,144.074c-1.629,1.434-2.44,3.224-2.44,5.364
	s0.639,3.832,1.918,5.075c1.271,1.247,3.703,2.444,7.282,3.594v-16.574C240.778,141.79,238.525,142.636,236.896,144.074z
	 M257.064,186.079c1.785-1.466,2.682-3.317,2.682-5.555c0-2.234-0.702-4.007-2.105-5.317c-1.411-1.31-4.031-2.538-7.858-3.688
	v17.241C252.847,188.445,255.271,187.549,257.064,186.079z"/>
<path style="fill:#64798A;" d="M350.9,376.967c2.731,0,4.94,2.148,4.94,4.796c0,2.649-2.21,4.796-4.94,4.796H151.281
	c-25.541,0-46.321-20.174-46.321-44.971c0-24.794,20.779-44.968,46.321-44.968H350.9c2.731,0,4.94,2.148,4.94,4.796
	s-2.21,4.796-4.94,4.796"/>
<path style="fill:#EBF0F3;" d="M213.403,301.417c-23.23,0-42.063,17.986-42.063,40.174c0,22.187,18.833,40.173,42.063,40.173
	h172.708c-11.498,0-11.498-80.347,0-80.347H213.403z"/>
<path style="fill:#3A556A;" d="M381.62,386.56H212.721c-25.541,0-46.321-20.174-46.321-44.971c0-24.794,20.779-44.968,46.321-44.968
	H381.62c2.731,0,4.94,2.148,4.94,4.796s-2.21,4.796-4.94,4.796H212.721c-20.094,0-36.44,15.869-36.44,35.376
	s16.346,35.378,36.44,35.378H381.62c2.731,0,4.94,2.148,4.94,4.796C386.56,384.412,384.35,386.56,381.62,386.56z"/>
<g>
	<path style="fill:#D5D6DB;" d="M194.411,363.172c-1.087-1.247-2.025-2.542-2.914-3.933H378.26c0.148,1.343,0.296,2.686,0.444,3.933
		H194.411z"/>
	<path style="fill:#D5D6DB;" d="M188.434,353.34c-0.495-1.247-0.938-2.542-1.285-3.885h190.468c0.049,1.295,0.148,2.638,0.198,3.885
		H188.434z"/>
	<path style="fill:#D5D6DB;" d="M191.497,323.938c0.889-1.391,1.827-2.686,2.914-3.933h184.293c-0.148,1.247-0.296,2.59-0.444,3.933
		H191.497z"/>
	<path style="fill:#D5D6DB;" d="M379.595,369.072c0.296,1.391,0.592,2.686,0.889,3.933H208.64c-2.668-1.055-5.188-2.35-7.509-3.933
		H379.595z"/>
	<path style="fill:#D5D6DB;" d="M201.131,314.105c2.322-1.583,4.841-2.878,7.509-3.933h171.843
		c-0.297,1.247-0.593,2.542-0.889,3.933H201.131z"/>
	<path style="fill:#D5D6DB;" d="M186.26,343.555c-0.049-0.672-0.099-1.295-0.099-1.967c0-0.671,0.049-1.295,0.099-1.966h191.258
		c-0.049,1.295-0.049,2.638,0,3.933H186.26z"/>
	<path style="fill:#D5D6DB;" d="M187.149,333.723c0.346-1.343,0.79-2.638,1.285-3.885h189.382c-0.049,1.295-0.148,2.59-0.198,3.885
		H187.149z"/>
</g>
<g>
</g>
<g>
</g>
<g>
</g>
<g>
</g>
<g>
</g>
<g>
</g>
<g>
</g>
<g>
</g>
<g>
</g>
<g>
</g>
<g>
</g>
<g>
</g>
<g>
</g>
<g>
</g>
<g>
</g>
</svg>
