<svg height="512pt" viewBox="-22 0 512 512" width="512pt" xmlns="http://www.w3.org/2000/svg"><path d="m7.5 46.5h334v458h-334zm0 0" fill="#ebad88"/><path d="m311.5 46.5h30v458h-30zm0 0" fill="#e8916f"/><path d="m461.5 417.648438-42.613281 75.710937c-.636719 1.101563-1.511719 1.640625-2.386719 1.640625s-1.75-.539062-2.386719-1.640625l-42.613281-75.710937zm0 0" fill="#ebad88"/><path d="m431.5 417.648438-15 77.351562c.875 0 1.75-.539062 2.386719-1.640625l42.613281-75.710937zm0 0" fill="#e89776"/><path d="m434.925781 464.855469-16.039062 28.5c-1.28125 2.191406-3.492188 2.191406-4.773438 0l-16.039062-28.5zm0 0" fill="#363636"/><path d="m461.5 87.648438h-90v-31.960938c0-8.859375 7.179688-16.039062 16.035156-16.039062h57.929688c8.855468 0 16.035156 7.179687 16.035156 16.039062zm0 0" fill="#4fc6f5"/><path d="m445.464844 39.648438h-30c8.855468 0 16.035156 7.179687 16.035156 16.039062v31.960938h30v-31.960938c0-8.859375-7.179688-16.039062-16.035156-16.039062zm0 0" fill="#3bb3e3"/><path d="m371.5 87.648438h30v330h-30zm0 0" fill="#ffd659"/><path d="m401.5 87.648438h30v330h-30zm0 0" fill="#ffbd54"/><path d="m431.5 87.648438h30v330h-30zm0 0" fill="#ffa954"/><path d="m311.5 76.5v398h-274v-398zm0 0" fill="#d8d5ed"/><path d="m233.5 96h-118c-3.3125 0-6-2.6875-6-6v-54c0-3.3125 2.6875-6 6-6h118c3.3125 0 6 2.6875 6 6v54c0 3.3125-2.6875 6-6 6zm0 0" fill="#ff2c5c"/><path d="m233.5 30h-30c3.3125 0 6 2.6875 6 6v54c0 3.3125-2.6875 6-6 6h30c3.3125 0 6-2.6875 6-6v-54c0-3.3125-2.6875-6-6-6zm0 0" fill="#e62753"/><path d="m445.464844 32.148438h-57.929688c-12.976562 0-23.535156 10.558593-23.535156 23.539062v361.960938c0 .289062.019531.574218.050781.855468.007813.058594.019531.117188.027344.175782.035156.246093.078125.484374.136719.71875.015625.070312.03125.140624.050781.207031.070313.253906.148437.503906.246094.75.011719.035156.023437.070312.035156.105469.117187.289062.253906.574218.40625.84375.003906.007812.007813.015624.011719.019531l42.613281 75.710937c.019531.035156.039063.070313.058594.105469 1.214843 2.074219 2.941406 3.625 4.933593 4.511719.023438.011718.042969.027344.066407.035156.265625.117188.542969.203125.816406.292969.144531.046875.28125.113281.425781.152343.113282.03125.230469.046876.34375.074219.742188.179688 1.5.289063 2.277344.289063 3.121094 0 6.035156-1.519532 8.027344-4.125.011718-.011719.023437-.023438.035156-.039063.132812-.175781.246094-.371093.371094-.554687.144531-.214844.292968-.414063.425781-.636719.003906-.011719.007813-.019531.015625-.027344.015625-.027343.027344-.054687.042969-.078125l1.4375-2.554687 41.179687-73.15625c0-.007813.003906-.011719.007813-.019531.152343-.273438.289062-.554688.40625-.847657.015625-.035156.023437-.070312.039062-.105469.09375-.242187.171875-.492187.242188-.746093.019531-.070313.035156-.136719.054687-.207031.054688-.234376.101563-.472657.132813-.71875.007812-.058594.019531-.117188.027343-.175782.03125-.28125.050782-.566406.050782-.855468v-258.148438c0-4.140625-3.355469-7.5-7.5-7.5-4.140625 0-7.5 3.359375-7.5 7.5v250.648438h-15v-315h15v32.351562c0 4.140625 3.359375 7.5 7.5 7.5 4.144531 0 7.5-3.359375 7.5-7.5v-71.8125c.003906-12.980469-10.554688-23.539062-23.53125-23.539062zm-14.921875 425.207031h-28.085938l-18.128906-32.207031h64.34375zm-19.640625 15h11.195312l-5.597656 9.949219zm-16.902344-62.207031h-15v-315h15zm30 0h-15v-315h15zm-45-330v-24.460938c0-4.707031 3.828125-8.539062 8.535156-8.539062h57.929688c4.707031 0 8.535156 3.832031 8.535156 8.539062v24.460938zm0 0"/><path d="m341.5 39h-94.5v-3c0-7.445312-6.054688-13.5-13.5-13.5h-14.964844c-2.359375-12.78125-13.578125-22.5-27.035156-22.5h-34c-13.457031 0-24.675781 9.71875-27.035156 22.5h-14.964844c-7.445312 0-13.5 6.054688-13.5 13.5v3h-94.5c-4.140625 0-7.5 3.359375-7.5 7.5v49.5c0 4.140625 3.359375 7.5 7.5 7.5s7.5-3.359375 7.5-7.5v-42h87v15h-64.5c-4.140625 0-7.5 3.359375-7.5 7.5v398c0 4.140625 3.359375 7.5 7.5 7.5h203c4.140625 0 7.5-3.359375 7.5-7.5s-3.359375-7.5-7.5-7.5h-195.5v-383h57v6c0 7.445312 6.054688 13.5 13.5 13.5h118c7.445312 0 13.5-6.054688 13.5-13.5v-6h57v383h-30.832031c-4.144531 0-7.5 3.359375-7.5 7.5s3.355469 7.5 7.5 7.5h38.332031c4.140625 0 7.5-3.359375 7.5-7.5v-398c0-4.140625-3.359375-7.5-7.5-7.5h-64.5v-15h87v443h-319v-369.332031c0-4.144531-3.359375-7.5-7.5-7.5s-7.5 3.355469-7.5 7.5v376.832031c0 4.140625 3.359375 7.5 7.5 7.5h334c4.140625 0 7.5-3.359375 7.5-7.5v-458c0-4.140625-3.359375-7.5-7.5-7.5zm-184-24h34c5.113281 0 9.515625 3.089844 11.449219 7.5h-56.898438c1.933594-4.410156 6.335938-7.5 11.449219-7.5zm74.5 73.5h-115v-51h115zm0 0"/><path d="m79.5 155.5h192c4.140625 0 7.5-3.359375 7.5-7.5s-3.359375-7.5-7.5-7.5h-192c-4.140625 0-7.5 3.359375-7.5 7.5s3.359375 7.5 7.5 7.5zm0 0"/><path d="m79.5 188.832031h192c4.140625 0 7.5-3.355469 7.5-7.5 0-4.140625-3.359375-7.5-7.5-7.5h-192c-4.140625 0-7.5 3.359375-7.5 7.5 0 4.144531 3.359375 7.5 7.5 7.5zm0 0"/><path d="m279 214.667969c0-4.144531-3.359375-7.5-7.5-7.5h-192c-4.140625 0-7.5 3.355469-7.5 7.5 0 4.140625 3.359375 7.5 7.5 7.5h192c4.140625 0 7.5-3.359375 7.5-7.5zm0 0"/><path d="m79.5 240.5c-4.140625 0-7.5 3.359375-7.5 7.5s3.359375 7.5 7.5 7.5h48.941406c4.144532 0 7.5-3.359375 7.5-7.5s-3.355468-7.5-7.5-7.5zm0 0"/></svg>