<?xml version="1.0" encoding="iso-8859-1"?>
<!-- Generator: Adobe Illustrator 19.0.0, SVG Export Plug-In . SVG Version: 6.00 Build 0)  -->
<svg version="1.1" id="Layer_1" xmlns="http://www.w3.org/2000/svg" xmlns:xlink="http://www.w3.org/1999/xlink" x="0px" y="0px"
	 viewBox="0 0 512 512" style="enable-background:new 0 0 512 512;" xml:space="preserve">
<polygon style="fill:#F8F8F9;" points="166.4,512 12.8,512 0,268.8 179.2,268.8 "/>
<g>
	<polygon style="fill:#EDEDED;" points="140.8,268.8 128,512 166.4,512 179.2,268.8 	"/>
	<polygon style="fill:#EDEDED;" points="3.369,332.8 12.8,512 166.4,512 175.831,332.8 	"/>
	<path style="fill:#EDEDED;" d="M473.6,51.2H268.8c0,76.8-38.4,76.8-38.4,140.8v320H512V192C512,128,473.6,128,473.6,51.2z"/>
</g>
<path style="fill:#D8D8DA;" d="M473.6,51.2h-51.2c0,76.8,38.4,76.8,38.4,140.8v320H512V192C512,128,473.6,128,473.6,51.2z"/>
<path style="fill:#B4D8F1;" d="M473.6,0H268.8C261.731,0,256,5.731,256,12.8v38.4c0,7.069,5.731,12.8,12.8,12.8h204.8
	c7.069,0,12.8-5.731,12.8-12.8V12.8C486.4,5.731,480.669,0,473.6,0z"/>
<path style="fill:#98C8ED;" d="M473.6,0h-51.2c7.069,0,12.8,5.731,12.8,12.8v38.4c0,7.069-5.731,12.8-12.8,12.8h51.2
	c7.069,0,12.8-5.731,12.8-12.8V12.8C486.4,5.731,480.669,0,473.6,0z"/>
<rect x="281.6" y="217.6" style="fill:#B4D8F1;" width="179.2" height="179.2"/>
<path style="fill:#F8F8F9;" d="M407.04,272h-51.064l-4.365-4.365c-5.44-5.44-12.672-8.435-20.365-8.435h-1.006
	c-3.884,0-7.383,2.339-8.869,5.926c-1.486,3.588-0.664,7.716,2.081,10.461l5.366,5.367l-14.964,12.47
	c-2.072,1.727-3.323,4.246-3.444,6.94c-0.123,2.694,0.895,5.316,2.802,7.223l6.4,6.4c1.8,1.801,4.242,2.812,6.788,2.812h7.04v28.8
	c0,4.708,3.414,8.722,8.063,9.476c4.644,0.751,9.156-1.972,10.645-6.441l3.693-11.078l3.693,11.078
	c1.489,4.467,5.993,7.188,10.645,6.441c4.648-0.754,8.063-4.768,8.063-9.476v-16h6.4v16c0,4.708,3.414,8.722,8.063,9.476
	c4.644,0.751,9.156-1.972,10.644-6.441l3.693-11.078l3.693,11.078c1.324,3.969,5.03,6.565,9.101,6.565
	c0.509,0,1.027-0.041,1.544-0.124c4.648-0.754,8.063-4.768,8.063-9.476v-51.2C429.44,282.049,419.391,272,407.04,272z"/>
<polygon style="fill:#D8D8DA;" points="137.431,332.8 128,512 166.4,512 175.831,332.8 "/>
<g>
</g>
<g>
</g>
<g>
</g>
<g>
</g>
<g>
</g>
<g>
</g>
<g>
</g>
<g>
</g>
<g>
</g>
<g>
</g>
<g>
</g>
<g>
</g>
<g>
</g>
<g>
</g>
<g>
</g>
</svg>
