<?xml version="1.0" encoding="iso-8859-1"?>
<!-- Generator: Adobe Illustrator 19.0.0, SVG Export Plug-In . SVG Version: 6.00 Build 0)  -->
<svg version="1.1" id="Layer_1" xmlns="http://www.w3.org/2000/svg" xmlns:xlink="http://www.w3.org/1999/xlink" x="0px" y="0px"
	 viewBox="0 0 512 512" style="enable-background:new 0 0 512 512;" xml:space="preserve">
<path style="fill:#D9454A;" d="M307.512,62.125H204.489c-4.432,0-8.024-3.593-8.024-8.024V18.379c0-4.432,3.593-8.024,8.024-8.024
	h103.024c4.432,0,8.024,3.593,8.024,8.024V54.1C315.537,58.532,311.944,62.125,307.512,62.125z"/>
<path style="fill:#EFEFEF;" d="M292.24,80.26V62.125h-72.479V80.26c0,8.264-3.35,16.173-9.282,21.924l-48.737,47.237
	c-5.934,5.751-9.282,13.661-9.282,21.924v299.769c0,16.863,13.67,30.532,30.532,30.532H329.01c16.863,0,30.532-13.67,30.532-30.532
	V171.346c0-8.264-3.35-16.173-9.282-21.924l-48.737-47.237C295.59,96.433,292.24,88.523,292.24,80.26z"/>
<g>
	<path style="fill:#231F20;" d="M357.466,141.986L308.729,94.75c-3.899-3.778-6.135-9.06-6.135-14.49v-7.781h4.918
		c10.134,0,18.379-8.244,18.379-18.379V18.379C325.891,8.244,317.646,0,307.512,0H204.489c-10.134,0-18.379,8.244-18.379,18.379
		V54.1c0,10.135,8.245,18.379,18.379,18.379h4.918v7.781c0,5.43-2.235,10.711-6.135,14.49l-48.737,47.237
		c-7.899,7.657-12.43,18.358-12.43,29.359v299.768c0,22.545,18.342,40.886,40.886,40.886h146.017
		c22.544,0,40.886-18.341,40.886-40.886V171.346C369.896,160.344,365.365,149.642,357.466,141.986z M206.818,20.708h98.364v31.062
		h-98.364L206.818,20.708L206.818,20.708z M281.886,72.479v7.781c0,10.882,4.439,21.466,12.18,29.104h-76.13
		c7.741-7.638,12.18-18.222,12.18-29.104v-7.781H281.886z M349.188,471.114c0,11.127-9.052,20.178-20.178,20.178H182.991
		c-11.127,0-20.178-9.052-20.178-20.178V171.346c0-5.43,2.235-10.711,6.135-14.49l27.634-26.784h118.837l27.634,26.784
		c3.899,3.778,6.135,9.06,6.135,14.49V471.114z"/>
	<path style="fill:#231F20;" d="M294.698,466.711h-77.395c-4.294,0-8.144-2.652-9.675-6.664c-1.53-4.012-0.425-8.554,2.779-11.413
		l34.691-30.974l-34.691-30.973c-3.204-2.861-4.308-7.401-2.779-11.413c1.531-4.012,5.38-6.664,9.675-6.664h77.395
		c5.718,0,10.354,4.636,10.354,10.354c0,5.719-4.637,10.354-10.354,10.354h-50.252l23.094,20.619c2.2,1.964,3.458,4.774,3.458,7.723
		s-1.258,5.759-3.458,7.723l-23.094,20.62h50.252c5.718,0,10.354,4.636,10.354,10.354S300.417,466.711,294.698,466.711z"/>
	<path style="fill:#231F20;" d="M217.303,347.899h0.258c5.718,0,10.354-4.636,10.354-10.354s-4.637-10.354-10.354-10.354h-0.258
		c-5.718,0-10.354,4.636-10.354,10.354S211.585,347.899,217.303,347.899z"/>
	<path style="fill:#231F20;" d="M294.698,327.191h-43.875c-5.718,0-10.354,4.636-10.354,10.354s4.637,10.354,10.354,10.354h43.875
		c5.718,0,10.354-4.636,10.354-10.354S300.417,327.191,294.698,327.191z"/>
	<path style="fill:#231F20;" d="M294.698,247.077c-5.718,0-10.354,4.636-10.354,10.354v28.343h-28.343h-38.698
		c-5.718,0-10.354,4.636-10.354,10.354c0,5.719,4.637,10.354,10.354,10.354H256h38.698c5.718,0,10.354-4.636,10.354-10.354v-38.698
		C305.052,251.713,300.417,247.077,294.698,247.077z"/>
	<path style="fill:#231F20;" d="M302.019,175.172c-4.044-4.043-10.598-4.043-14.644,0l-31.376,31.376l-31.376-31.376
		c-4.044-4.043-10.598-4.043-14.644,0c-4.043,4.043-4.043,10.6,0,14.644l21.022,21.022h-13.699c-5.718,0-10.354,4.636-10.354,10.354
		s4.637,10.354,10.354,10.354H256h38.698c5.718,0,10.354-4.636,10.354-10.354s-4.637-10.354-10.354-10.354h-13.7l21.022-21.022
		C306.064,185.772,306.064,179.216,302.019,175.172z"/>
</g>
<g>
</g>
<g>
</g>
<g>
</g>
<g>
</g>
<g>
</g>
<g>
</g>
<g>
</g>
<g>
</g>
<g>
</g>
<g>
</g>
<g>
</g>
<g>
</g>
<g>
</g>
<g>
</g>
<g>
</g>
</svg>
